<svg xmlns="http://www.w3.org/2000/svg" viewBox="0 0 639 63" fill="none">
  <g fill="#d1d5db" opacity="0.5">
    <rect x="17" y="9" width="8" height="8"/>
    <rect x="25" y="9" width="8" height="8"/>
    <rect x="33" y="9" width="8" height="8"/>
    <rect x="73" y="9" width="8" height="8"/>
    <rect x="81" y="9" width="8" height="8"/>
    <rect x="89" y="9" width="8" height="8"/>
    <rect x="105" y="9" width="8" height="8"/>
    <rect x="113" y="9" width="8" height="8"/>
    <rect x="137" y="9" width="8" height="8"/>
    <rect x="145" y="9" width="8" height="8"/>
    <rect x="153" y="9" width="8" height="8"/>
    <rect x="161" y="9" width="8" height="8"/>
    <rect x="169" y="9" width="8" height="8"/>
    <rect x="225" y="9" width="8" height="8"/>
    <rect x="233" y="9" width="8" height="8"/>
    <rect x="265" y="9" width="8" height="8"/>
    <rect x="273" y="9" width="8" height="8"/>
    <rect x="289" y="9" width="8" height="8"/>
    <rect x="297" y="9" width="8" height="8"/>
    <rect x="305" y="9" width="8" height="8"/>
    <rect x="313" y="9" width="8" height="8"/>
    <rect x="321" y="9" width="8" height="8"/>
    <rect x="329" y="9" width="8" height="8"/>
    <rect x="337" y="9" width="8" height="8"/>
    <rect x="353" y="9" width="8" height="8"/>
    <rect x="361" y="9" width="8" height="8"/>
    <rect x="417" y="9" width="8" height="8"/>
    <rect x="425" y="9" width="8" height="8"/>
    <rect x="441" y="9" width="8" height="8"/>
    <rect x="449" y="9" width="8" height="8"/>
    <rect x="457" y="9" width="8" height="8"/>
    <rect x="465" y="9" width="8" height="8"/>
    <rect x="473" y="9" width="8" height="8"/>
    <rect x="481" y="9" width="8" height="8"/>
    <rect x="489" y="9" width="8" height="8"/>
    <rect x="513" y="9" width="8" height="8"/>
    <rect x="521" y="9" width="8" height="8"/>
    <rect x="529" y="9" width="8" height="8"/>
    <rect x="537" y="9" width="8" height="8"/>
    <rect x="545" y="9" width="8" height="8"/>
    <rect x="569" y="9" width="8" height="8"/>
    <rect x="577" y="9" width="8" height="8"/>
    <rect x="585" y="9" width="8" height="8"/>
    <rect x="593" y="9" width="8" height="8"/>
    <rect x="601" y="9" width="8" height="8"/>
    <rect x="609" y="9" width="8" height="8"/>
    <rect x="17" y="17" width="8" height="8"/>
    <rect x="25" y="17" width="8" height="8"/>
    <rect x="33" y="17" width="8" height="8"/>
    <rect x="41" y="17" width="8" height="8"/>
    <rect x="65" y="17" width="8" height="8"/>
    <rect x="73" y="17" width="8" height="8"/>
    <rect x="81" y="17" width="8" height="8"/>
    <rect x="89" y="17" width="8" height="8"/>
    <rect x="105" y="17" width="8" height="8"/>
    <rect x="113" y="17" width="8" height="8"/>
    <rect x="129" y="17" width="8" height="8"/>
    <rect x="137" y="17" width="8" height="8"/>
    <rect x="169" y="17" width="8" height="8"/>
    <rect x="177" y="17" width="8" height="8"/>
    <rect x="225" y="17" width="8" height="8"/>
    <rect x="233" y="17" width="8" height="8"/>
    <rect x="257" y="17" width="8" height="8"/>
    <rect x="265" y="17" width="8" height="8"/>
    <rect x="289" y="17" width="8" height="8"/>
    <rect x="297" y="17" width="8" height="8"/>
    <rect x="353" y="17" width="8" height="8"/>
    <rect x="361" y="17" width="8" height="8"/>
    <rect x="417" y="17" width="8" height="8"/>
    <rect x="425" y="17" width="8" height="8"/>
    <rect x="441" y="17" width="8" height="8"/>
    <rect x="449" y="17" width="8" height="8"/>
    <rect x="505" y="17" width="8" height="8"/>
    <rect x="513" y="17" width="8" height="8"/>
    <rect x="545" y="17" width="8" height="8"/>
    <rect x="553" y="17" width="8" height="8"/>
    <rect x="569" y="17" width="8" height="8"/>
    <rect x="577" y="17" width="8" height="8"/>
    <rect x="609" y="17" width="8" height="8"/>
    <rect x="617" y="17" width="8" height="8"/>
    <rect x="17" y="25" width="8" height="8"/>
    <rect x="25" y="25" width="8" height="8"/>
    <rect x="41" y="25" width="8" height="8"/>
    <rect x="49" y="25" width="8" height="8"/>
    <rect x="57" y="25" width="8" height="8"/>
    <rect x="65" y="25" width="8" height="8"/>
    <rect x="81" y="25" width="8" height="8"/>
    <rect x="89" y="25" width="8" height="8"/>
    <rect x="105" y="25" width="8" height="8"/>
    <rect x="113" y="25" width="8" height="8"/>
    <rect x="129" y="25" width="8" height="8"/>
    <rect x="137" y="25" width="8" height="8"/>
    <rect x="145" y="25" width="8" height="8"/>
    <rect x="153" y="25" width="8" height="8"/>
    <rect x="161" y="25" width="8" height="8"/>
    <rect x="169" y="25" width="8" height="8"/>
    <rect x="177" y="25" width="8" height="8"/>
    <rect x="225" y="25" width="8" height="8"/>
    <rect x="233" y="25" width="8" height="8"/>
    <rect x="241" y="25" width="8" height="8"/>
    <rect x="249" y="25" width="8" height="8"/>
    <rect x="257" y="25" width="8" height="8"/>
    <rect x="289" y="25" width="8" height="8"/>
    <rect x="297" y="25" width="8" height="8"/>
    <rect x="305" y="25" width="8" height="8"/>
    <rect x="313" y="25" width="8" height="8"/>
    <rect x="321" y="25" width="8" height="8"/>
    <rect x="353" y="25" width="8" height="8"/>
    <rect x="361" y="25" width="8" height="8"/>
    <rect x="417" y="25" width="8" height="8"/>
    <rect x="425" y="25" width="8" height="8"/>
    <rect x="441" y="25" width="8" height="8"/>
    <rect x="449" y="25" width="8" height="8"/>
    <rect x="457" y="25" width="8" height="8"/>
    <rect x="465" y="25" width="8" height="8"/>
    <rect x="473" y="25" width="8" height="8"/>
    <rect x="481" y="25" width="8" height="8"/>
    <rect x="489" y="25" width="8" height="8"/>
    <rect x="505" y="25" width="8" height="8"/>
    <rect x="513" y="25" width="8" height="8"/>
    <rect x="521" y="25" width="8" height="8"/>
    <rect x="529" y="25" width="8" height="8"/>
    <rect x="537" y="25" width="8" height="8"/>
    <rect x="545" y="25" width="8" height="8"/>
    <rect x="553" y="25" width="8" height="8"/>
    <rect x="569" y="25" width="8" height="8"/>
    <rect x="577" y="25" width="8" height="8"/>
    <rect x="585" y="25" width="8" height="8"/>
    <rect x="593" y="25" width="8" height="8"/>
    <rect x="601" y="25" width="8" height="8"/>
    <rect x="609" y="25" width="8" height="8"/>
    <rect x="17" y="33" width="8" height="8"/>
    <rect x="25" y="33" width="8" height="8"/>
    <rect x="49" y="33" width="8" height="8"/>
    <rect x="57" y="33" width="8" height="8"/>
    <rect x="81" y="33" width="8" height="8"/>
    <rect x="89" y="33" width="8" height="8"/>
    <rect x="105" y="33" width="8" height="8"/>
    <rect x="113" y="33" width="8" height="8"/>
    <rect x="129" y="33" width="8" height="8"/>
    <rect x="137" y="33" width="8" height="8"/>
    <rect x="169" y="33" width="8" height="8"/>
    <rect x="177" y="33" width="8" height="8"/>
    <rect x="225" y="33" width="8" height="8"/>
    <rect x="233" y="33" width="8" height="8"/>
    <rect x="257" y="33" width="8" height="8"/>
    <rect x="265" y="33" width="8" height="8"/>
    <rect x="289" y="33" width="8" height="8"/>
    <rect x="297" y="33" width="8" height="8"/>
    <rect x="353" y="33" width="8" height="8"/>
    <rect x="361" y="33" width="8" height="8"/>
    <rect x="417" y="33" width="8" height="8"/>
    <rect x="425" y="33" width="8" height="8"/>
    <rect x="481" y="33" width="8" height="8"/>
    <rect x="489" y="33" width="8" height="8"/>
    <rect x="505" y="33" width="8" height="8"/>
    <rect x="513" y="33" width="8" height="8"/>
    <rect x="545" y="33" width="8" height="8"/>
    <rect x="553" y="33" width="8" height="8"/>
    <rect x="569" y="33" width="8" height="8"/>
    <rect x="577" y="33" width="8" height="8"/>
    <rect x="17" y="41" width="8" height="8"/>
    <rect x="25" y="41" width="8" height="8"/>
    <rect x="81" y="41" width="8" height="8"/>
    <rect x="89" y="41" width="8" height="8"/>
    <rect x="105" y="41" width="8" height="8"/>
    <rect x="113" y="41" width="8" height="8"/>
    <rect x="129" y="41" width="8" height="8"/>
    <rect x="137" y="41" width="8" height="8"/>
    <rect x="169" y="41" width="8" height="8"/>
    <rect x="177" y="41" width="8" height="8"/>
    <rect x="225" y="41" width="8" height="8"/>
    <rect x="233" y="41" width="8" height="8"/>
    <rect x="265" y="41" width="8" height="8"/>
    <rect x="273" y="41" width="8" height="8"/>
    <rect x="289" y="41" width="8" height="8"/>
    <rect x="297" y="41" width="8" height="8"/>
    <rect x="305" y="41" width="8" height="8"/>
    <rect x="313" y="41" width="8" height="8"/>
    <rect x="321" y="41" width="8" height="8"/>
    <rect x="329" y="41" width="8" height="8"/>
    <rect x="337" y="41" width="8" height="8"/>
    <rect x="353" y="41" width="8" height="8"/>
    <rect x="361" y="41" width="8" height="8"/>
    <rect x="369" y="41" width="8" height="8"/>
    <rect x="377" y="41" width="8" height="8"/>
    <rect x="385" y="41" width="8" height="8"/>
    <rect x="393" y="41" width="8" height="8"/>
    <rect x="401" y="41" width="8" height="8"/>
    <rect x="417" y="41" width="8" height="8"/>
    <rect x="425" y="41" width="8" height="8"/>
    <rect x="441" y="41" width="8" height="8"/>
    <rect x="449" y="41" width="8" height="8"/>
    <rect x="457" y="41" width="8" height="8"/>
    <rect x="465" y="41" width="8" height="8"/>
    <rect x="473" y="41" width="8" height="8"/>
    <rect x="481" y="41" width="8" height="8"/>
    <rect x="489" y="41" width="8" height="8"/>
    <rect x="505" y="41" width="8" height="8"/>
    <rect x="513" y="41" width="8" height="8"/>
    <rect x="545" y="41" width="8" height="8"/>
    <rect x="553" y="41" width="8" height="8"/>
    <rect x="569" y="41" width="8" height="8"/>
    <rect x="577" y="41" width="8" height="8"/>
  </g>
  <g fill="#6b7280">
    <rect x="38" y="6" width="8" height="8"/>
    <rect x="94" y="6" width="8" height="8"/>
    <rect x="118" y="6" width="8" height="8"/>
    <rect x="174" y="6" width="8" height="8"/>
    <rect x="238" y="6" width="8" height="8"/>
    <rect x="278" y="6" width="8" height="8"/>
    <rect x="342" y="6" width="8" height="8"/>
    <rect x="366" y="6" width="8" height="8"/>
    <rect x="430" y="6" width="8" height="8"/>
    <rect x="494" y="6" width="8" height="8"/>
    <rect x="550" y="6" width="8" height="8"/>
    <rect x="614" y="6" width="8" height="8"/>
    <rect x="46" y="14" width="8" height="8"/>
    <rect x="94" y="14" width="8" height="8"/>
    <rect x="118" y="14" width="8" height="8"/>
    <rect x="142" y="14" width="8" height="8"/>
    <rect x="150" y="14" width="8" height="8"/>
    <rect x="158" y="14" width="8" height="8"/>
    <rect x="182" y="14" width="8" height="8"/>
    <rect x="238" y="14" width="8" height="8"/>
    <rect x="270" y="14" width="8" height="8"/>
    <rect x="278" y="14" width="8" height="8"/>
    <rect x="302" y="14" width="8" height="8"/>
    <rect x="310" y="14" width="8" height="8"/>
    <rect x="318" y="14" width="8" height="8"/>
    <rect x="326" y="14" width="8" height="8"/>
    <rect x="334" y="14" width="8" height="8"/>
    <rect x="342" y="14" width="8" height="8"/>
    <rect x="366" y="14" width="8" height="8"/>
    <rect x="430" y="14" width="8" height="8"/>
    <rect x="454" y="14" width="8" height="8"/>
    <rect x="462" y="14" width="8" height="8"/>
    <rect x="470" y="14" width="8" height="8"/>
    <rect x="478" y="14" width="8" height="8"/>
    <rect x="486" y="14" width="8" height="8"/>
    <rect x="494" y="14" width="8" height="8"/>
    <rect x="518" y="14" width="8" height="8"/>
    <rect x="526" y="14" width="8" height="8"/>
    <rect x="534" y="14" width="8" height="8"/>
    <rect x="558" y="14" width="8" height="8"/>
    <rect x="582" y="14" width="8" height="8"/>
    <rect x="590" y="14" width="8" height="8"/>
    <rect x="598" y="14" width="8" height="8"/>
    <rect x="622" y="14" width="8" height="8"/>
    <rect x="30" y="22" width="8" height="8"/>
    <rect x="70" y="22" width="8" height="8"/>
    <rect x="94" y="22" width="8" height="8"/>
    <rect x="118" y="22" width="8" height="8"/>
    <rect x="182" y="22" width="8" height="8"/>
    <rect x="262" y="22" width="8" height="8"/>
    <rect x="270" y="22" width="8" height="8"/>
    <rect x="326" y="22" width="8" height="8"/>
    <rect x="366" y="22" width="8" height="8"/>
    <rect x="430" y="22" width="8" height="8"/>
    <rect x="494" y="22" width="8" height="8"/>
    <rect x="558" y="22" width="8" height="8"/>
    <rect x="614" y="22" width="8" height="8"/>
    <rect x="622" y="22" width="8" height="8"/>
    <rect x="30" y="30" width="8" height="8"/>
    <rect x="38" y="30" width="8" height="8"/>
    <rect x="62" y="30" width="8" height="8"/>
    <rect x="70" y="30" width="8" height="8"/>
    <rect x="94" y="30" width="8" height="8"/>
    <rect x="118" y="30" width="8" height="8"/>
    <rect x="142" y="30" width="8" height="8"/>
    <rect x="150" y="30" width="8" height="8"/>
    <rect x="158" y="30" width="8" height="8"/>
    <rect x="182" y="30" width="8" height="8"/>
    <rect x="238" y="30" width="8" height="8"/>
    <rect x="246" y="30" width="8" height="8"/>
    <rect x="270" y="30" width="8" height="8"/>
    <rect x="302" y="30" width="8" height="8"/>
    <rect x="310" y="30" width="8" height="8"/>
    <rect x="318" y="30" width="8" height="8"/>
    <rect x="326" y="30" width="8" height="8"/>
    <rect x="366" y="30" width="8" height="8"/>
    <rect x="430" y="30" width="8" height="8"/>
    <rect x="438" y="30" width="8" height="8"/>
    <rect x="446" y="30" width="8" height="8"/>
    <rect x="454" y="30" width="8" height="8"/>
    <rect x="462" y="30" width="8" height="8"/>
    <rect x="470" y="30" width="8" height="8"/>
    <rect x="494" y="30" width="8" height="8"/>
    <rect x="518" y="30" width="8" height="8"/>
    <rect x="526" y="30" width="8" height="8"/>
    <rect x="534" y="30" width="8" height="8"/>
    <rect x="558" y="30" width="8" height="8"/>
    <rect x="582" y="30" width="8" height="8"/>
    <rect x="590" y="30" width="8" height="8"/>
    <rect x="598" y="30" width="8" height="8"/>
    <rect x="606" y="30" width="8" height="8"/>
    <rect x="614" y="30" width="8" height="8"/>
    <rect x="30" y="38" width="8" height="8"/>
    <rect x="46" y="38" width="8" height="8"/>
    <rect x="54" y="38" width="8" height="8"/>
    <rect x="62" y="38" width="8" height="8"/>
    <rect x="94" y="38" width="8" height="8"/>
    <rect x="118" y="38" width="8" height="8"/>
    <rect x="142" y="38" width="8" height="8"/>
    <rect x="182" y="38" width="8" height="8"/>
    <rect x="238" y="38" width="8" height="8"/>
    <rect x="278" y="38" width="8" height="8"/>
    <rect x="342" y="38" width="8" height="8"/>
    <rect x="406" y="38" width="8" height="8"/>
    <rect x="430" y="38" width="8" height="8"/>
    <rect x="494" y="38" width="8" height="8"/>
    <rect x="518" y="38" width="8" height="8"/>
    <rect x="558" y="38" width="8" height="8"/>
    <rect x="582" y="38" width="8" height="8"/>
    <rect x="14" y="46" width="8" height="8"/>
    <rect x="22" y="46" width="8" height="8"/>
    <rect x="30" y="46" width="8" height="8"/>
    <rect x="78" y="46" width="8" height="8"/>
    <rect x="86" y="46" width="8" height="8"/>
    <rect x="94" y="46" width="8" height="8"/>
    <rect x="102" y="46" width="8" height="8"/>
    <rect x="110" y="46" width="8" height="8"/>
    <rect x="118" y="46" width="8" height="8"/>
    <rect x="126" y="46" width="8" height="8"/>
    <rect x="134" y="46" width="8" height="8"/>
    <rect x="142" y="46" width="8" height="8"/>
    <rect x="166" y="46" width="8" height="8"/>
    <rect x="174" y="46" width="8" height="8"/>
    <rect x="182" y="46" width="8" height="8"/>
    <rect x="222" y="46" width="8" height="8"/>
    <rect x="230" y="46" width="8" height="8"/>
    <rect x="238" y="46" width="8" height="8"/>
    <rect x="262" y="46" width="8" height="8"/>
    <rect x="270" y="46" width="8" height="8"/>
    <rect x="278" y="46" width="8" height="8"/>
    <rect x="286" y="46" width="8" height="8"/>
    <rect x="294" y="46" width="8" height="8"/>
    <rect x="302" y="46" width="8" height="8"/>
    <rect x="310" y="46" width="8" height="8"/>
    <rect x="318" y="46" width="8" height="8"/>
    <rect x="326" y="46" width="8" height="8"/>
    <rect x="334" y="46" width="8" height="8"/>
    <rect x="342" y="46" width="8" height="8"/>
    <rect x="350" y="46" width="8" height="8"/>
    <rect x="358" y="46" width="8" height="8"/>
    <rect x="366" y="46" width="8" height="8"/>
    <rect x="374" y="46" width="8" height="8"/>
    <rect x="382" y="46" width="8" height="8"/>
    <rect x="390" y="46" width="8" height="8"/>
    <rect x="398" y="46" width="8" height="8"/>
    <rect x="406" y="46" width="8" height="8"/>
    <rect x="414" y="46" width="8" height="8"/>
    <rect x="422" y="46" width="8" height="8"/>
    <rect x="430" y="46" width="8" height="8"/>
    <rect x="438" y="46" width="8" height="8"/>
    <rect x="446" y="46" width="8" height="8"/>
    <rect x="454" y="46" width="8" height="8"/>
    <rect x="462" y="46" width="8" height="8"/>
    <rect x="470" y="46" width="8" height="8"/>
    <rect x="478" y="46" width="8" height="8"/>
    <rect x="486" y="46" width="8" height="8"/>
    <rect x="494" y="46" width="8" height="8"/>
    <rect x="502" y="46" width="8" height="8"/>
    <rect x="510" y="46" width="8" height="8"/>
    <rect x="518" y="46" width="8" height="8"/>
    <rect x="542" y="46" width="8" height="8"/>
    <rect x="550" y="46" width="8" height="8"/>
    <rect x="558" y="46" width="8" height="8"/>
    <rect x="566" y="46" width="8" height="8"/>
    <rect x="574" y="46" width="8" height="8"/>
    <rect x="582" y="46" width="8" height="8"/>
  </g>
  <g fill="#1f2937">
    <rect x="14" y="6" width="8" height="8"/>
    <rect x="22" y="6" width="8" height="8"/>
    <rect x="30" y="6" width="8" height="8"/>
    <rect x="70" y="6" width="8" height="8"/>
    <rect x="78" y="6" width="8" height="8"/>
    <rect x="86" y="6" width="8" height="8"/>
    <rect x="102" y="6" width="8" height="8"/>
    <rect x="110" y="6" width="8" height="8"/>
    <rect x="134" y="6" width="8" height="8"/>
    <rect x="142" y="6" width="8" height="8"/>
    <rect x="150" y="6" width="8" height="8"/>
    <rect x="158" y="6" width="8" height="8"/>
    <rect x="166" y="6" width="8" height="8"/>
    <rect x="222" y="6" width="8" height="8"/>
    <rect x="230" y="6" width="8" height="8"/>
    <rect x="262" y="6" width="8" height="8"/>
    <rect x="270" y="6" width="8" height="8"/>
    <rect x="286" y="6" width="8" height="8"/>
    <rect x="294" y="6" width="8" height="8"/>
    <rect x="302" y="6" width="8" height="8"/>
    <rect x="310" y="6" width="8" height="8"/>
    <rect x="318" y="6" width="8" height="8"/>
    <rect x="326" y="6" width="8" height="8"/>
    <rect x="334" y="6" width="8" height="8"/>
    <rect x="350" y="6" width="8" height="8"/>
    <rect x="358" y="6" width="8" height="8"/>
    <rect x="414" y="6" width="8" height="8"/>
    <rect x="422" y="6" width="8" height="8"/>
    <rect x="438" y="6" width="8" height="8"/>
    <rect x="446" y="6" width="8" height="8"/>
    <rect x="454" y="6" width="8" height="8"/>
    <rect x="462" y="6" width="8" height="8"/>
    <rect x="470" y="6" width="8" height="8"/>
    <rect x="478" y="6" width="8" height="8"/>
    <rect x="486" y="6" width="8" height="8"/>
    <rect x="510" y="6" width="8" height="8"/>
    <rect x="518" y="6" width="8" height="8"/>
    <rect x="526" y="6" width="8" height="8"/>
    <rect x="534" y="6" width="8" height="8"/>
    <rect x="542" y="6" width="8" height="8"/>
    <rect x="566" y="6" width="8" height="8"/>
    <rect x="574" y="6" width="8" height="8"/>
    <rect x="582" y="6" width="8" height="8"/>
    <rect x="590" y="6" width="8" height="8"/>
    <rect x="598" y="6" width="8" height="8"/>
    <rect x="606" y="6" width="8" height="8"/>
    <rect x="14" y="14" width="8" height="8"/>
    <rect x="22" y="14" width="8" height="8"/>
    <rect x="30" y="14" width="8" height="8"/>
    <rect x="38" y="14" width="8" height="8"/>
    <rect x="62" y="14" width="8" height="8"/>
    <rect x="70" y="14" width="8" height="8"/>
    <rect x="78" y="14" width="8" height="8"/>
    <rect x="86" y="14" width="8" height="8"/>
    <rect x="102" y="14" width="8" height="8"/>
    <rect x="110" y="14" width="8" height="8"/>
    <rect x="126" y="14" width="8" height="8"/>
    <rect x="134" y="14" width="8" height="8"/>
    <rect x="166" y="14" width="8" height="8"/>
    <rect x="174" y="14" width="8" height="8"/>
    <rect x="222" y="14" width="8" height="8"/>
    <rect x="230" y="14" width="8" height="8"/>
    <rect x="254" y="14" width="8" height="8"/>
    <rect x="262" y="14" width="8" height="8"/>
    <rect x="286" y="14" width="8" height="8"/>
    <rect x="294" y="14" width="8" height="8"/>
    <rect x="350" y="14" width="8" height="8"/>
    <rect x="358" y="14" width="8" height="8"/>
    <rect x="414" y="14" width="8" height="8"/>
    <rect x="422" y="14" width="8" height="8"/>
    <rect x="438" y="14" width="8" height="8"/>
    <rect x="446" y="14" width="8" height="8"/>
    <rect x="502" y="14" width="8" height="8"/>
    <rect x="510" y="14" width="8" height="8"/>
    <rect x="542" y="14" width="8" height="8"/>
    <rect x="550" y="14" width="8" height="8"/>
    <rect x="566" y="14" width="8" height="8"/>
    <rect x="574" y="14" width="8" height="8"/>
    <rect x="606" y="14" width="8" height="8"/>
    <rect x="614" y="14" width="8" height="8"/>
    <rect x="14" y="22" width="8" height="8"/>
    <rect x="22" y="22" width="8" height="8"/>
    <rect x="38" y="22" width="8" height="8"/>
    <rect x="46" y="22" width="8" height="8"/>
    <rect x="54" y="22" width="8" height="8"/>
    <rect x="62" y="22" width="8" height="8"/>
    <rect x="78" y="22" width="8" height="8"/>
    <rect x="86" y="22" width="8" height="8"/>
    <rect x="102" y="22" width="8" height="8"/>
    <rect x="110" y="22" width="8" height="8"/>
    <rect x="126" y="22" width="8" height="8"/>
    <rect x="134" y="22" width="8" height="8"/>
    <rect x="142" y="22" width="8" height="8"/>
    <rect x="150" y="22" width="8" height="8"/>
    <rect x="158" y="22" width="8" height="8"/>
    <rect x="166" y="22" width="8" height="8"/>
    <rect x="174" y="22" width="8" height="8"/>
    <rect x="222" y="22" width="8" height="8"/>
    <rect x="230" y="22" width="8" height="8"/>
    <rect x="238" y="22" width="8" height="8"/>
    <rect x="246" y="22" width="8" height="8"/>
    <rect x="254" y="22" width="8" height="8"/>
    <rect x="286" y="22" width="8" height="8"/>
    <rect x="294" y="22" width="8" height="8"/>
    <rect x="302" y="22" width="8" height="8"/>
    <rect x="310" y="22" width="8" height="8"/>
    <rect x="318" y="22" width="8" height="8"/>
    <rect x="350" y="22" width="8" height="8"/>
    <rect x="358" y="22" width="8" height="8"/>
    <rect x="414" y="22" width="8" height="8"/>
    <rect x="422" y="22" width="8" height="8"/>
    <rect x="438" y="22" width="8" height="8"/>
    <rect x="446" y="22" width="8" height="8"/>
    <rect x="454" y="22" width="8" height="8"/>
    <rect x="462" y="22" width="8" height="8"/>
    <rect x="470" y="22" width="8" height="8"/>
    <rect x="478" y="22" width="8" height="8"/>
    <rect x="486" y="22" width="8" height="8"/>
    <rect x="502" y="22" width="8" height="8"/>
    <rect x="510" y="22" width="8" height="8"/>
    <rect x="518" y="22" width="8" height="8"/>
    <rect x="526" y="22" width="8" height="8"/>
    <rect x="534" y="22" width="8" height="8"/>
    <rect x="542" y="22" width="8" height="8"/>
    <rect x="550" y="22" width="8" height="8"/>
    <rect x="566" y="22" width="8" height="8"/>
    <rect x="574" y="22" width="8" height="8"/>
    <rect x="582" y="22" width="8" height="8"/>
    <rect x="590" y="22" width="8" height="8"/>
    <rect x="598" y="22" width="8" height="8"/>
    <rect x="606" y="22" width="8" height="8"/>
    <rect x="14" y="30" width="8" height="8"/>
    <rect x="22" y="30" width="8" height="8"/>
    <rect x="46" y="30" width="8" height="8"/>
    <rect x="54" y="30" width="8" height="8"/>
    <rect x="78" y="30" width="8" height="8"/>
    <rect x="86" y="30" width="8" height="8"/>
    <rect x="102" y="30" width="8" height="8"/>
    <rect x="110" y="30" width="8" height="8"/>
    <rect x="126" y="30" width="8" height="8"/>
    <rect x="134" y="30" width="8" height="8"/>
    <rect x="166" y="30" width="8" height="8"/>
    <rect x="174" y="30" width="8" height="8"/>
    <rect x="222" y="30" width="8" height="8"/>
    <rect x="230" y="30" width="8" height="8"/>
    <rect x="254" y="30" width="8" height="8"/>
    <rect x="262" y="30" width="8" height="8"/>
    <rect x="286" y="30" width="8" height="8"/>
    <rect x="294" y="30" width="8" height="8"/>
    <rect x="350" y="30" width="8" height="8"/>
    <rect x="358" y="30" width="8" height="8"/>
    <rect x="414" y="30" width="8" height="8"/>
    <rect x="422" y="30" width="8" height="8"/>
    <rect x="478" y="30" width="8" height="8"/>
    <rect x="486" y="30" width="8" height="8"/>
    <rect x="502" y="30" width="8" height="8"/>
    <rect x="510" y="30" width="8" height="8"/>
    <rect x="542" y="30" width="8" height="8"/>
    <rect x="550" y="30" width="8" height="8"/>
    <rect x="566" y="30" width="8" height="8"/>
    <rect x="574" y="30" width="8" height="8"/>
    <rect x="14" y="38" width="8" height="8"/>
    <rect x="22" y="38" width="8" height="8"/>
    <rect x="78" y="38" width="8" height="8"/>
    <rect x="86" y="38" width="8" height="8"/>
    <rect x="102" y="38" width="8" height="8"/>
    <rect x="110" y="38" width="8" height="8"/>
    <rect x="126" y="38" width="8" height="8"/>
    <rect x="134" y="38" width="8" height="8"/>
    <rect x="166" y="38" width="8" height="8"/>
    <rect x="174" y="38" width="8" height="8"/>
    <rect x="222" y="38" width="8" height="8"/>
    <rect x="230" y="38" width="8" height="8"/>
    <rect x="262" y="38" width="8" height="8"/>
    <rect x="270" y="38" width="8" height="8"/>
    <rect x="286" y="38" width="8" height="8"/>
    <rect x="294" y="38" width="8" height="8"/>
    <rect x="302" y="38" width="8" height="8"/>
    <rect x="310" y="38" width="8" height="8"/>
    <rect x="318" y="38" width="8" height="8"/>
    <rect x="326" y="38" width="8" height="8"/>
    <rect x="334" y="38" width="8" height="8"/>
    <rect x="350" y="38" width="8" height="8"/>
    <rect x="358" y="38" width="8" height="8"/>
    <rect x="366" y="38" width="8" height="8"/>
    <rect x="374" y="38" width="8" height="8"/>
    <rect x="382" y="38" width="8" height="8"/>
    <rect x="390" y="38" width="8" height="8"/>
    <rect x="398" y="38" width="8" height="8"/>
    <rect x="414" y="38" width="8" height="8"/>
    <rect x="422" y="38" width="8" height="8"/>
    <rect x="438" y="38" width="8" height="8"/>
    <rect x="446" y="38" width="8" height="8"/>
    <rect x="454" y="38" width="8" height="8"/>
    <rect x="462" y="38" width="8" height="8"/>
    <rect x="470" y="38" width="8" height="8"/>
    <rect x="478" y="38" width="8" height="8"/>
    <rect x="486" y="38" width="8" height="8"/>
    <rect x="502" y="38" width="8" height="8"/>
    <rect x="510" y="38" width="8" height="8"/>
    <rect x="542" y="38" width="8" height="8"/>
    <rect x="550" y="38" width="8" height="8"/>
    <rect x="566" y="38" width="8" height="8"/>
    <rect x="574" y="38" width="8" height="8"/>
  </g>
</svg>